<?xml version="1.0" encoding="UTF-8"?>
<svg viewBox="0 0 1244 890" xmlns="http://www.w3.org/2000/svg" xmlns:xlink="http://www.w3.org/1999/xlink">
 <defs>
  <filter id="p">
   <feGaussianBlur stdDeviation="1.032"/>
  </filter>
  <linearGradient id="n" x1="187" x2="325" y1="-752" y2="26" gradientUnits="userSpaceOnUse">
   <stop stop-color="#4b4b4b" offset="0"/>
   <stop stop-color="#1e1818" offset="1"/>
  </linearGradient>
  <linearGradient id="m" x1="785" x2="1183" y1="-298" y2="-730" gradientUnits="userSpaceOnUse">
   <stop stop-color="#676767" offset="0"/>
   <stop stop-color="#8f8f8f" offset="1"/>
  </linearGradient>
  <linearGradient id="l" x1="1216" x2="1229.8" y1="290.82" y2="317.86" gradientUnits="userSpaceOnUse">
   <stop stop-color="#1d1d1d" offset="0"/>
   <stop stop-color="#737270" offset="1"/>
  </linearGradient>
  <linearGradient id="k" x1="1217.2" x2="1198.2" y1="306.94" y2="271.81" gradientUnits="userSpaceOnUse">
   <stop stop-color="#5f5e5c" offset="0"/>
   <stop offset="1"/>
  </linearGradient>
  <linearGradient id="j" x2="0" y1="48" y2="-20" gradientUnits="userSpaceOnUse">
   <stop stop-color="#1d1b1c" offset="0"/>
   <stop stop-color="#1d1b1c" stop-opacity="0" offset="1"/>
  </linearGradient>
  <linearGradient id="b">
   <stop stop-color="#959595" offset="0"/>
   <stop stop-color="#d4d4d4" offset="1"/>
  </linearGradient>
  <linearGradient id="o" x2="1244" gradientUnits="userSpaceOnUse">
   <stop stop-color="#a3a3a3" offset="0"/>
   <stop stop-color="#b4b4b4" offset=".0041"/>
   <stop stop-color="#d7d7d7" offset=".01564"/>
   <stop stop-color="#d4d4d4" offset=".02175"/>
   <stop stop-color="#f5f5f5" offset=".5846"/>
   <stop stop-color="#e8e8e8" offset=".95402"/>
   <stop stop-color="#7b7b7b" offset=".98478"/>
   <stop stop-color="#898989" offset=".99279"/>
   <stop stop-color="#7a7a7a" offset="1"/>
  </linearGradient>
  <radialGradient id="f" cx="561.1" cy="-1825.7" r="619" gradientTransform="matrix(1.1004 0 0 1.9245 -56.848 2750.4)" gradientUnits="userSpaceOnUse">
   <stop stop-color="#666465" stop-opacity=".15603" offset="0"/>
   <stop stop-color="#666465" offset=".86107"/>
   <stop stop-color="#666465" offset="1"/>
  </radialGradient>
  <radialGradient id="e" cx="3034.2" cy="-3587" r="619" gradientTransform="matrix(.05381 0 0 .04909 1064 -577.07)" gradientUnits="userSpaceOnUse">
   <stop stop-color="#2d2c2a" offset="0"/>
   <stop stop-color="#2d2c2a" stop-opacity="0" offset="1"/>
  </radialGradient>
  <radialGradient id="d" cx="8652.1" cy="4158.9" r="619" gradientTransform="matrix(.07583 .00105 -.001 .0723 573.57 -270.56)" gradientUnits="userSpaceOnUse">
   <stop stop-color="#f0f0f0" offset="0"/>
   <stop stop-color="#f0f0f0" stop-opacity="0" offset="1"/>
  </radialGradient>
  <radialGradient id="c" cx="-2.5824" cy="-1199.4" r="619" gradientTransform="matrix(.09543 0 0 1.1746 -2.836 1063.5)" gradientUnits="userSpaceOnUse">
   <stop stop-color="#e9e9e9" offset="0"/>
   <stop stop-color="#e9e9e9" stop-opacity="0" offset="1"/>
  </radialGradient>
  <radialGradient id="a" cx="684.13" cy="-10.375" r="5.0747" gradientUnits="userSpaceOnUse">
   <stop stop-color="#454545" offset="0"/>
   <stop stop-color="#454545" stop-opacity="0" offset="1"/>
  </radialGradient>
  <radialGradient id="i" cx="623" cy="636.78" r="619" gradientTransform="matrix(.99838 0 0 .03074 .00646 -60.573)" gradientUnits="userSpaceOnUse">
   <stop stop-color="#bababa" offset="0"/>
   <stop stop-color="#dfdfdf" offset=".25"/>
   <stop stop-color="#c7c7c7" offset=".68396"/>
   <stop stop-color="#bababa" offset="1"/>
  </radialGradient>
  <radialGradient id="g" cx="529.81" cy="28.964" r="2.4375" gradientTransform="matrix(1.3599 0 0 2.3333 -190.95 -31.312)" gradientUnits="userSpaceOnUse" xlink:href="#b"/>
  <radialGradient id="h" cx="529.81" cy="28.964" r="2.4375" gradientTransform="matrix(1.3599 0 0 2.3333 -182.95 -31.312)" gradientUnits="userSpaceOnUse" xlink:href="#b"/>
 </defs>
 <g transform="translate(0,832)">
  <path d="m61-774h1122a61,61 0 0,1 61,61v710a61,61 0 0,1 -61,61h-1122a61,61 0 0,1 -61-61v-710a61,61 0 0,1 61-61" fill="#131313"/>
  <path d="m62-771h1120a59,59 0 0,1 59,59v708a59,59 0 0,1 -59,59h-1120a59,59 0 0,1 -59-59v-708a59,59 0 0,1 59-59" fill="#e9e9e9"/>
  <path d="m64-764h1116a52,52 0 0,1 52,52v708a52,52 0 0,1 -52,52h-1116a52,52 0 0,1 -52-52v-708a52,52 0 0,1 52-52" fill="#131313"/>
  <path d="m64-761h1116a49,49 0 0,1 49,49v708a49,49 0 0,1 -49,49h-1116a49,49 0 0,1 -49-49v-708a49,49 0 0,1 49-49" fill="url(#n)"/>
  <path d="m275.5-761h904.5c27.146 0 49 21.854 49 49v602.5z" fill="url(#m)"/>
  <path d="m93-657h1024v600h-1024z" fill="#424242"/>
  <path d="m95-655h1020v596h-1020z"/>
  <g transform="translate(-1.4377 81.438)">
   <path transform="matrix(1.1246 0 0 1.1246 -178.92 -768.17)" d="m1244.9 292.71c0 16.207-13.138 29.345-29.345 29.345s-29.345-13.138-29.345-29.345 13.138-29.345 29.345-29.345 29.345 13.138 29.345 29.345z" fill="url(#l)"/>
   <path d="m1179.5-451.5h17a4,4 0 0,1 4,4v17a4,4 0 0,1 -4,4h-17a4,4 0 0,1 -4-4v-17a4,4 0 0,1 4-4" fill="none" stroke="#ada7a7" stroke-width="2"/>
   <path transform="matrix(1.1246 0 0 1.1246 -178.92 -768.17)" d="m1244.9 292.71c0 16.207-13.138 29.345-29.345 29.345s-29.345-13.138-29.345-29.345 13.138-29.345 29.345-29.345 29.345 13.138 29.345 29.345z" fill="none" stroke="url(#k)"/>
  </g>
  <path d="m62-771c-32.686 0-59 26.314-59 59v708c0 32.686 26.314 59 59 59h1120c32.686 0 59-26.314 59-59v-708c0-32.686-26.314-59-59-59zm2 5h1118c28.808 0 54 23.192 54 52v710c0 28.808-25.192 56-54 56h-1118c-28.808 0-56-27.192-56-56v-708c0-28.808 27.192-54 56-54z" fill="url(#f)" filter="url(#p)"/>
  <path d="m62-771c-32.686 0-59 26.314-59 59v708c0 32.686 26.314 59 59 59h1120c32.686 0 59-26.314 59-59v-708c0-32.686-26.314-59-59-59zm-2 3h1124c28.808 0 52 23.192 52 52v716c0 28.808-23.192 52-52 52h-1124c-28.808 0-52-23.192-52-52v-716c0-28.808 23.192-52 52-52z" fill="url(#e)"/>
  <path d="m62-771c-32.686 0-59 26.314-59 59v708c0 32.686 26.314 61 59 61h1120c32.686 0 59-28.314 59-61v-708c0-32.686-26.314-59-59-59zm-2 3h1124c28.808 0 52 23.192 52 52v716c0 28.808-23.192 52-52 52h-1124c-28.808 0-52-23.192-52-52v-716c0-28.808 23.192-52 52-52z" fill="url(#j)"/>
  <path d="m62-771c-32.686 0-59 26.314-59 59v708c0 32.686 26.314 59 59 59h1120c32.686 0 59-26.314 59-59v-708c0-32.686-26.314-59-59-59zm-2 3h1124c28.808 0 52.162 23.192 52 52l-4 712c-0.1618 28.808-23.192 51.897-52 52l-1120 4c-28.808 0.10289-52-23.192-52-52v-716c0-28.808 23.192-52 52-52z" fill="url(#d)"/>
  <path d="m62-771c-32.686 0-59 26.314-59 59v708c0 32.686 26.314 59 59 59h1120c32.686 0 59-26.314 59-59v-708c0-32.686-26.314-59-59-59zm-2 3h1124c28.808 0 52 23.192 52 52v716c0 28.808-23.192 52-52 52h-1124c-28.808 0-50-23.192-50-52v-716c0-28.808 21.192-52 50-52z" fill="url(#c)"/>
  <g transform="translate(0,-832)">
   <g transform="translate(0,60)">
    <path d="m4-42h1236a4,4 0 0,1 4,4v32a4,4 0 0,1 -4,4h-1236a4,4 0 0,1 -4-4v-32a4,4 0 0,1 4-4" fill="url(#o)"/>
    <path d="m622-60c603.23 0 618 18 618 18h-1236s14.77-18 618-18z" fill="url(#i)"/>
    <path d="m1244-6c0 2.216-1.784 4-4 4h-1236c-2.216 0-4-1.784-4-4z" fill-opacity=".11917"/>
    <path d="m1244-38c0-2.216-1.784-4-4-4h-1236c-2.216 0-4 1.784-4 4z" fill="#fff" fill-opacity=".26943"/>
   </g>
   <g transform="translate(-.21961 7.3536)">
    <path d="m517.43841,17.39645c.0103.08266.0312.16446.0312.25v14c0,1.108-.892,2-2,2h-69c-.0855,0-.16734-.02093-.25-.03125 .54908.62744 1.3469,1.03125 2.25,1.03125h67c1.662,0 3-1.338 3-3v-12c0-.9031-.40381-1.70092-1.03125-2.25z" fill="#e2e2e2"/>
    <path d="m452.22 21.896h61.75a1 1 0 0 1 1 1v5.75a1 1 0 0 1 -1 1h-61.75a1 1 0 0 1 -1 -1v-5.75a1 1 0 0 1 1 -1" fill="#1e1e1e"/>
    <path d="m458.99999,24.89645h48.18922a.78039,.6129 0 0,1 .78039.6129v3.52419a.78039,.6129 0 0,1 -.78039.6129h-48.18922a.78039,.6129 0 0,1 -.78039-.6129v-3.52419a.78039,.6129 0 0,1 .78039-.6129" fill="#444"/>
    <path d="m447.25091,34.64645c-.0103-.08266-.0312-.16446-.0312-.25v-14c0-1.108.892-2 2-2h69c.0855,0 .16734.02093.25.03125-.54913-.62744-1.34695-1.03125-2.25005-1.03125h-67c-1.662,0-3,1.338-3,3v12c0,.9031.40381,1.70092 1.03125,2.25z" fill="#c8c8c8"/>
   </g>
   <path d="m529,29.5a2.5,3 0 0,1 2.5,3v5a2.5,3 0 0,1 -2.5,3 2.5,3 0 0,1 -2.5-3v-5a2.5,3 0 0,1 2.5-3" fill="url(#g)" stroke="#cfcfcf"/>
   <path d="m537,29.5a2.5,3 0 0,1 2.5,3v5a2.5,3 0 0,1 -2.5,3 2.5,3 0 0,1 -2.5-3v-5a2.5,3 0 0,1 2.5-3" fill="url(#h)" stroke="#cfcfcf"/>
   <g transform="translate(0,47)">
    <path d="m668.19-21.25h37.048a11.192 11.125 0 0 1 11.192 11.125 11.192 11.125 0 0 1 -11.192 11.125h-37.048a11.192 11.125 0 0 1 -11.192 -11.125 11.192 11.125 0 0 1 11.192 -11.125" fill="#c8c8c8"/>
    <path d="m669.23-20h34.979a10.566 9.875 0 0 1 10.566 9.875 10.566 9.875 0 0 1 -10.566 9.875h-34.979a10.566 9.875 0 0 1 -10.566 -9.875 10.566 9.875 0 0 1 10.566 -9.875" fill="#454545"/>
    <path d="m670.4-18.964h32.632a9.8577 8.8393 0 0 1 9.8577 8.8393 9.8577 8.8393 0 0 1 -9.8577 8.8393h-32.632a9.8577 8.8393 0 0 1 -9.8577 -8.8393 9.8577 8.8393 0 0 1 9.8577 -8.8393" fill="#616161"/>
    <path transform="matrix(1.5794 0 0 1.303 -393.81 3.3939)" d="m688.25-10.375c0 2.2782-1.8468 4.125-4.125 4.125s-4.125-1.8468-4.125-4.125 1.8468-4.125 4.125-4.125 4.125 1.8468 4.125 4.125z" fill="url(#a)"/>
    <path transform="matrix(1.2121 0 0 1 -142.53 .25)" d="m688.25-10.375c0 2.2782-1.8468 4.125-4.125 4.125s-4.125-1.8468-4.125-4.125 1.8468-4.125 4.125-4.125 4.125 1.8468 4.125 4.125z" fill="#686868"/>
   </g>
   <g transform="translate(-.34375 27.094)">
    <path d="m774.66-3.9375c-1.336 0-2.2916 0.56388-2.9688 1.2188l-4.125 4c-0.64641 0.62515-1.2188 1.3627-1.2188 2.2188v6.5625c0 2.1038 1.5346 2.8438 2.8438 2.8438h37.719c1.3092 0 2.8438-0.73997 2.8438-2.8438v-6.5625c0-0.85608-0.60359-1.5936-1.25-2.2188l-4.125-4c-0.67713-0.65487-1.6015-1.2188-2.9375-1.2188z" fill="#c2c2c2"/>
    <path d="m775.54-2.9652c-1.2479 0-2.1405 0.49878-2.773 1.078l-3.853 3.5382c-0.60378 0.55298-1.1384 1.2054-1.1384 1.9626v5.8049c0 1.8609 1.4334 2.5154 2.6562 2.5154h35.231c1.2229 0 2.6562-0.65455 2.6562-2.5154v-5.8049c0-0.75725-0.56378-1.4096-1.1676-1.9626l-3.853-3.5382c-0.63248-0.57927-1.4958-1.078-2.7438-1.078z" fill="#2d2d2d"/>
    <path d="m775.53-2.9688c-0.57135 0-1.0425 0.13997-1.4688 0.3125 0.31519 2.2632 1.8784 5.75 3.7812 5.75h20.406c1.9028 0 3.4661-3.4868 3.7812-5.75-0.42629-0.17253-0.8974-0.3125-1.4688-0.3125h-25.031z" fill="#444"/>
    <path d="m778.47 8.2188c-1.8152 0-3.3052 1.7938-3.5625 3.7188h26.281c-0.25728-1.9249-1.7473-3.7188-3.5625-3.7188h-19.156z" fill="#444"/>
   </g>
   <path d="m821.03982,27.43564h6.92041a.60415,.60101 0 0,1 .60415.60101v4.92669a.60415,.60101 0 0,1 -.60415.60101h-6.92041a.60415,.60101 0 0,1 -.60415-.60101v-4.92669a.60415,.60101 0 0,1 .60415-.60101" fill="none" stroke="#c9c9c9" stroke-width=".87129"/>
   <path d="m837.03982,27.43564h6.92041a.60415,.60101 0 0,1 .60415.60101v4.92669a.60415,.60101 0 0,1 -.60415.60101h-6.92041a.60415,.60101 0 0,1 -.60415-.60101v-4.92669a.60415,.60101 0 0,1 .60415-.60101" fill="none" stroke="#c9c9c9" stroke-width=".87129"/>
   <path d="m829.03982,38.43564h6.92041a.60415,.60101 0 0,1 .60415.60101v4.92669a.60415,.60101 0 0,1 -.60415.60101h-6.92041a.60415,.60101 0 0,1 -.60415-.60101v-4.92669a.60415,.60101 0 0,1 .60415-.60101" fill="none" stroke="#c9c9c9" stroke-width=".87129"/>
   <path d="m824 33.625v2.375h17v-2.5" fill="none" stroke="#c9c9c9"/>
   <path d="m832.5 36.114v2.3865" fill="none" stroke="#c9c9c9"/>
   <g transform="translate(-.53992 7.6029)">
    <path d="m966.34 19.799s26.119 1.0003 39.179 1.0003 39.179-1.0003 39.179-1.0003c5.4288 0 9.7992 4.3704 9.7992 9.7992s-4.3704 9.7992-9.7992 9.7992c0 0-26.12-1.0001-39.179-1.0001s-39.179 1.0001-39.179 1.0001c-5.4287 0-9.7992-4.3704-9.7992-9.7992s4.3704-9.7992 9.7992-9.7992z" fill="#c8c8c8"/>
    <path d="m966.74 20.9s25.855 1.0002 38.782 1.0002 38.782-1.0002 38.782-1.0002c4.8188 0 8.6981 3.8794 8.6981 8.6981s-3.8793 8.6981-8.6981 8.6981c0 0-25.855-1-38.782-1s-38.782 1-38.782 1c-4.8188 0-8.6981-3.8794-8.6981-8.6981s3.8794-8.6981 8.6981-8.6981z" fill="#454545"/>
    <path d="m968.4 21.812s24.748 0.99996 37.123 0.99996 37.123-0.99996 37.123-0.99996c4.3134 0 7.7859 3.4725 7.7859 7.7859s-3.4725 7.7859-7.7859 7.7859c0 0-24.748-0.99977-37.123-0.99977s-37.123 0.99977-37.123 0.99977c-4.3134 0-7.7859-3.4725-7.7859-7.7859s3.4725-7.7859 7.7859-7.7859z" fill="#616161"/>
    <path transform="matrix(1.2198 0 0 1.0063 135.68 40.038)" d="m688.25-10.375c0 2.2782-1.8468 4.125-4.125 4.125s-4.125-1.8468-4.125-4.125 1.8468-4.125 4.125-4.125 4.125 1.8468 4.125 4.125z" fill="url(#a)"/>
    <path transform="matrix(.93611 0 0 .77229 329.75 37.61)" d="m688.25-10.375c0 2.2782-1.8468 4.125-4.125 4.125s-4.125-1.8468-4.125-4.125 1.8468-4.125 4.125-4.125 4.125 1.8468 4.125 4.125z" fill="#686868"/>
    <path transform="matrix(-1.2198 0 0 1.0063 1875.4 40.038)" d="m688.25-10.375c0 2.2782-1.8468 4.125-4.125 4.125s-4.125-1.8468-4.125-4.125 1.8468-4.125 4.125-4.125 4.125 1.8468 4.125 4.125z" fill="url(#a)"/>
    <path transform="matrix(-.93611 0 0 .77229 1681.3 37.61)" d="m688.25-10.375c0 2.2782-1.8468 4.125-4.125 4.125s-4.125-1.8468-4.125-4.125 1.8468-4.125 4.125-4.125 4.125 1.8468 4.125 4.125z" fill="#686868"/>
   </g>
  </g>
 </g>
</svg>
